<?xml version="1.0" encoding="UTF-8"?>
<svg id="Layer_1" xmlns="http://www.w3.org/2000/svg" version="1.1" viewBox="0 0 80 80">
  <!-- Generator: Adobe Illustrator 29.8.0, SVG Export Plug-In . SVG Version: 2.1.1 Build 160)  -->
  <defs>
    <style>
      .st0 {
        fill: #1b2955;
      }

      .st1 {
        fill: #fff;
      }
    </style>
  </defs>
  <rect class="st0" width="80" height="80"/>
  <g>
    <g>
      <path class="st1" d="M16.9,13.2c-.2-.5-.6-.8-1-1-.4-.2-.9-.4-1.5-.4s-1.2.1-1.7.4c-.5.3-.9.7-1.2,1.2-.3.5-.4,1.2-.4,1.9s.1,1.4.4,1.9c.3.5.7,1,1.2,1.2.5.3,1.1.4,1.8.4s1.5-.2,2-.7c.5-.4.9-1.1,1-1.8h-3.7v-1.7h5.9v1.9c-.1.8-.5,1.5-.9,2.1-.5.6-1.1,1.2-1.8,1.5s-1.6.6-2.5.6-2-.2-2.8-.7c-.8-.5-1.5-1.1-2-2-.5-.8-.7-1.8-.7-2.9s.2-2,.7-2.9c.5-.8,1.1-1.5,2-2,.8-.5,1.8-.7,2.8-.7s2.3.3,3.2.9c.9.6,1.5,1.4,1.9,2.5h-2.5Z"/>
      <path class="st1" d="M23.4,9.2v11.5h-2.2v-11.5h2.2Z"/>
      <path class="st1" d="M27.1,20.3c-.7-.4-1.2-.9-1.6-1.6-.4-.7-.6-1.4-.6-2.3s.2-1.7.6-2.3c.4-.7.9-1.2,1.6-1.6.7-.4,1.4-.6,2.2-.6s1.6.2,2.2.6c.7.4,1.2.9,1.6,1.6.4.7.6,1.4.6,2.3s-.2,1.7-.6,2.3c-.4.7-.9,1.2-1.6,1.6s-1.4.6-2.3.6-1.6-.2-2.2-.6ZM30.5,18.7c.3-.2.6-.5.8-.9.2-.4.3-.8.3-1.4,0-.8-.2-1.4-.6-1.9-.4-.4-1-.7-1.6-.7s-1.1.2-1.6.7c-.4.4-.6,1.1-.6,1.9s.2,1.4.6,1.9c.4.4.9.7,1.5.7s.8,0,1.1-.3Z"/>
      <path class="st1" d="M38.8,12.4c.5-.3,1.1-.4,1.7-.4s1.4.2,2,.5c.6.4,1.1.9,1.4,1.5.3.7.5,1.4.5,2.3s-.2,1.7-.5,2.3c-.3.7-.8,1.2-1.4,1.6-.6.4-1.3.6-2,.6s-1.2-.1-1.7-.4c-.5-.3-.9-.6-1.2-1v1.2h-2.2v-11.5h2.2v4.1c.3-.4.7-.7,1.2-1ZM41.8,15.1c-.2-.4-.5-.7-.8-.9-.3-.2-.7-.3-1.1-.3s-.8.1-1.1.3c-.3.2-.6.5-.8.9-.2.4-.3.8-.3,1.3s.1,1,.3,1.3c.2.4.5.7.8.9.3.2.7.3,1.1.3s.8-.1,1.1-.3c.3-.2.6-.5.8-.9s.3-.8.3-1.4-.1-1-.3-1.3Z"/>
      <path class="st1" d="M45.9,14.1c.3-.7.8-1.2,1.4-1.6.6-.4,1.3-.5,2-.5s1.2.1,1.7.4c.5.3.9.6,1.2,1v-1.2h2.2v8.6h-2.2v-1.3c-.3.4-.7.7-1.2,1-.5.3-1.1.4-1.7.4s-1.4-.2-2-.6c-.6-.4-1.1-.9-1.4-1.6-.3-.7-.5-1.5-.5-2.3s.2-1.6.5-2.3ZM51.9,15.1c-.2-.4-.5-.7-.8-.9-.4-.2-.7-.3-1.1-.3s-.8,0-1.1.3c-.3.2-.6.5-.8.9-.2.4-.3.8-.3,1.3s.1,1,.3,1.4.5.7.8.9c.3.2.7.3,1.1.3s.8-.1,1.1-.3c.4-.2.6-.5.8-.9.2-.4.3-.8.3-1.4s-.1-1-.3-1.4Z"/>
      <path class="st1" d="M58.6,9.2v11.5h-2.2v-11.5h2.2Z"/>
    </g>
    <g>
      <path class="st1" d="M17,34.2c.4.5.6,1.1.6,1.7s-.1,1.1-.4,1.5c-.3.4-.7.8-1.2,1-.5.2-1.2.4-1.9.4h-4.7v-10.8h4.5c.7,0,1.4.1,1.9.4.5.2.9.6,1.2,1,.3.4.4.9.4,1.4s-.2,1.2-.5,1.6c-.3.4-.8.7-1.3.9.6.1,1.1.4,1.5.9ZM11.5,32.5h2c.5,0,.9-.1,1.2-.3s.4-.6.4-1-.1-.8-.4-1-.7-.4-1.2-.4h-2v2.7ZM14.9,36.7c.3-.2.4-.6.4-1.1s-.2-.8-.5-1.1c-.3-.3-.7-.4-1.3-.4h-2.1v2.9h2.2c.5,0,.9-.1,1.2-.4Z"/>
      <path class="st1" d="M19.3,32.2c.3-.7.8-1.2,1.4-1.6.6-.4,1.3-.5,2-.5s1.2.1,1.7.4c.5.3.9.6,1.2,1v-1.2h2.2v8.6h-2.2v-1.3c-.3.4-.7.7-1.2,1-.5.3-1.1.4-1.7.4s-1.4-.2-2-.6c-.6-.4-1.1-.9-1.4-1.6-.3-.7-.5-1.5-.5-2.3s.2-1.6.5-2.3ZM25.2,33.2c-.2-.4-.5-.7-.8-.9-.4-.2-.7-.3-1.1-.3s-.8,0-1.1.3c-.3.2-.6.5-.8.9-.2.4-.3.8-.3,1.3s.1,1,.3,1.4.5.7.8.9c.3.2.7.3,1.1.3s.8-.1,1.1-.3c.4-.2.6-.5.8-.9.2-.4.3-.8.3-1.4s-.1-1-.3-1.4Z"/>
      <path class="st1" d="M37.1,31.1c.6.6.9,1.5.9,2.7v5h-2.2v-4.7c0-.7-.2-1.2-.5-1.6-.3-.4-.8-.6-1.4-.6s-1.1.2-1.4.6c-.3.4-.5.9-.5,1.6v4.7h-2.2v-8.6h2.2v1.1c.3-.4.7-.7,1.1-.9.4-.2.9-.3,1.5-.3,1,0,1.8.3,2.5,1Z"/>
      <path class="st1" d="M45.2,38.9l-2.9-3.7v3.7h-2.2v-11.5h2.2v6.5l2.9-3.6h2.8l-3.8,4.3,3.8,4.3h-2.8Z"/>
      <path class="st1" d="M49.3,28.9c-.3-.2-.4-.5-.4-.9s.1-.7.4-.9c.3-.2.6-.4,1-.4s.7.1,1,.4c.3.2.4.5.4.9s-.1.7-.4.9c-.3.2-.6.4-1,.4s-.7-.1-1-.4ZM51.3,30.3v8.6h-2.2v-8.6h2.2Z"/>
      <path class="st1" d="M60.7,31.1c.6.6.9,1.5.9,2.7v5h-2.2v-4.7c0-.7-.2-1.2-.5-1.6-.3-.4-.8-.6-1.4-.6s-1.1.2-1.4.6c-.3.4-.5.9-.5,1.6v4.7h-2.2v-8.6h2.2v1.1c.3-.4.7-.7,1.1-.9.4-.2.9-.3,1.5-.3,1,0,1.8.3,2.5,1Z"/>
      <path class="st1" d="M68.7,30.5c.5.3.9.6,1.1,1v-1.2h2.2v8.7c0,.8-.2,1.5-.5,2.1-.3.6-.8,1.1-1.4,1.5-.6.4-1.4.6-2.3.6s-2.2-.3-3-.9c-.8-.6-1.2-1.3-1.3-2.3h2.2c.1.4.4.7.7.9s.8.3,1.4.3,1.1-.2,1.5-.6c.4-.4.6-.9.6-1.7v-1.3c-.3.4-.7.7-1.2,1-.5.3-1.1.4-1.7.4s-1.4-.2-2-.6c-.6-.4-1.1-.9-1.4-1.6-.3-.7-.5-1.5-.5-2.3s.2-1.6.5-2.3c.3-.7.8-1.2,1.4-1.6.6-.4,1.3-.5,2-.5s1.2.1,1.7.4ZM69.6,33.2c-.2-.4-.5-.7-.8-.9-.4-.2-.7-.3-1.1-.3s-.8,0-1.1.3c-.3.2-.6.5-.8.9-.2.4-.3.8-.3,1.3s.1,1,.3,1.4.5.7.8.9c.3.2.7.3,1.1.3s.8-.1,1.1-.3c.4-.2.6-.5.8-.9.2-.4.3-.8.3-1.4s-.1-1-.3-1.4Z"/>
    </g>
    <g>
      <path class="st1" d="M11,56.7c-.6-.3-1.1-.6-1.4-1.1-.4-.5-.5-1.1-.5-1.7h2.3c0,.4.2.8.5,1.1.3.3.7.4,1.2.4s.9-.1,1.2-.4c.3-.2.4-.6.4-1s0-.6-.3-.8c-.2-.2-.4-.4-.7-.5s-.7-.3-1.2-.4c-.7-.2-1.3-.4-1.7-.6s-.8-.5-1.1-.9c-.3-.4-.5-1-.5-1.6s.2-1.2.5-1.7c.3-.5.8-.8,1.3-1.1s1.2-.4,2-.4c1.1,0,2,.3,2.7.8.7.5,1.1,1.3,1.2,2.3h-2.4c0-.4-.2-.7-.5-.9-.3-.2-.7-.4-1.2-.4s-.8.1-1,.3c-.3.2-.4.5-.4.9s0,.5.3.7.4.3.7.5c.3.1.7.3,1.2.4.7.2,1.3.4,1.7.6.4.2.8.5,1.1.9.3.4.5,1,.5,1.6s-.1,1.1-.4,1.6c-.3.5-.7.9-1.3,1.2-.6.3-1.3.4-2.1.4s-1.4-.1-2-.4Z"/>
      <path class="st1" d="M18.8,50.4c.4-.7.9-1.2,1.5-1.6.6-.4,1.4-.6,2.2-.6s1.9.3,2.6.8c.7.5,1.2,1.3,1.4,2.2h-2.3c-.1-.4-.3-.7-.6-.9-.3-.2-.7-.3-1.1-.3-.6,0-1.1.2-1.5.7s-.5,1.1-.5,1.9.2,1.4.5,1.9.9.7,1.5.7c.9,0,1.5-.4,1.7-1.2h2.3c-.2.9-.7,1.7-1.4,2.2s-1.6.8-2.6.8-1.6-.2-2.2-.6c-.6-.4-1.1-.9-1.5-1.6-.4-.7-.5-1.4-.5-2.3s.2-1.7.5-2.3Z"/>
      <path class="st1" d="M34.7,48.7c.5.3.9.7,1.2,1.3.3.6.4,1.2.4,2v5h-2.2v-4.7c0-.7-.2-1.2-.5-1.6-.3-.4-.8-.6-1.4-.6s-1.1.2-1.4.6c-.3.4-.5.9-.5,1.6v4.7h-2.2v-11.5h2.2v4c.3-.4.7-.7,1.1-.9s1-.3,1.6-.3,1.2.1,1.7.4Z"/>
      <path class="st1" d="M39.9,56.6c-.7-.4-1.2-.9-1.6-1.6-.4-.7-.6-1.4-.6-2.3s.2-1.7.6-2.3c.4-.7.9-1.2,1.6-1.6.7-.4,1.4-.6,2.2-.6s1.6.2,2.2.6c.7.4,1.2.9,1.6,1.6.4.7.6,1.4.6,2.3s-.2,1.7-.6,2.3c-.4.7-.9,1.2-1.6,1.6s-1.4.6-2.3.6-1.6-.2-2.2-.6ZM43.3,55c.3-.2.6-.5.8-.9.2-.4.3-.8.3-1.4,0-.8-.2-1.4-.6-1.9-.4-.4-1-.7-1.6-.7s-1.1.2-1.6.7c-.4.4-.6,1.1-.6,1.9s.2,1.4.6,1.9.9.7,1.5.7.8,0,1.1-.3Z"/>
      <path class="st1" d="M49.8,56.6c-.7-.4-1.2-.9-1.6-1.6-.4-.7-.6-1.4-.6-2.3s.2-1.7.6-2.3c.4-.7.9-1.2,1.6-1.6.7-.4,1.4-.6,2.2-.6s1.6.2,2.2.6c.7.4,1.2.9,1.6,1.6.4.7.6,1.4.6,2.3s-.2,1.7-.6,2.3c-.4.7-.9,1.2-1.6,1.6s-1.4.6-2.3.6-1.6-.2-2.2-.6ZM53.2,55c.3-.2.6-.5.8-.9.2-.4.3-.8.3-1.4,0-.8-.2-1.4-.6-1.9-.4-.4-1-.7-1.6-.7s-1.1.2-1.6.7c-.4.4-.6,1.1-.6,1.9s.2,1.4.6,1.9.9.7,1.5.7.8,0,1.1-.3Z"/>
      <path class="st1" d="M60.3,45.5v11.5h-2.2v-11.5h2.2Z"/>
    </g>
    <g>
      <path class="st1" d="M11.4,70.4c.1,0,.2.2.3.3,0,.1,0,.3,0,.4s0,.4-.1.5c0,.1-.2.3-.4.3s-.4.1-.6.1h-1.4v-3.6h1.3c.2,0,.5,0,.6.1.2,0,.3.2.4.3,0,.1.1.3.1.5s0,.4-.2.5-.3.2-.5.3c.1,0,.3,0,.4.2ZM9.7,70.1h.8c.2,0,.4,0,.5-.2.1-.1.2-.2.2-.4s0-.3-.2-.4c-.1-.1-.3-.2-.5-.2h-.8v1.2ZM11.1,71.6c.1-.1.2-.3.2-.5s0-.4-.2-.5-.3-.2-.6-.2h-.8v1.3h.8c.2,0,.4,0,.6-.2Z"/>
      <path class="st1" d="M13.2,69.4c.2,0,.3-.1.6-.1v.5h-.1c-.5,0-.8.3-.8.9v1.6h-.5v-2.9h.5v.5c0-.2.2-.3.4-.4Z"/>
      <path class="st1" d="M17,70.9h-2.3c0,.3.1.5.3.7.2.2.4.2.6.2s.4,0,.5-.1c.1,0,.2-.2.3-.4h.5c0,.3-.2.5-.5.7-.2.2-.5.3-.9.3s-.5,0-.7-.2c-.2-.1-.4-.3-.5-.5-.1-.2-.2-.5-.2-.8s0-.6.2-.8.3-.4.5-.5c.2-.1.5-.2.7-.2s.5,0,.7.2c.2.1.4.3.5.5.1.2.2.4.2.7s0,.2,0,.3ZM16.4,70c0-.1-.2-.2-.3-.3-.1,0-.3-.1-.5-.1-.2,0-.4,0-.6.2-.2.2-.3.4-.3.6h1.8c0-.2,0-.3-.1-.5Z"/>
      <path class="st1" d="M17.6,69.9c.1-.2.3-.4.5-.5.2-.1.4-.2.7-.2s.5,0,.7.2c.2.1.3.2.4.4v-.5h.5v2.9h-.5v-.5c0,.2-.2.3-.4.4-.2.1-.4.2-.6.2s-.5,0-.7-.2c-.2-.1-.4-.3-.5-.5-.1-.2-.2-.5-.2-.8s0-.5.2-.8ZM19.7,70.2c0-.2-.2-.3-.4-.4-.1,0-.3-.1-.5-.1s-.3,0-.5.1-.3.2-.3.4c0,.2-.1.3-.1.6s0,.4.1.6c0,.2.2.3.3.4s.3.1.5.1.3,0,.5-.1c.1,0,.3-.2.4-.4,0-.2.1-.4.1-.6s0-.4-.1-.6Z"/>
      <path class="st1" d="M22.7,72.2l-1.1-1.3v1.3h-.5v-3.9h.5v2.3l1.1-1.3h.7l-1.3,1.4,1.4,1.4h-.6Z"/>
      <path class="st1" d="M23.8,68.7c0,0,0-.1,0-.2s0-.2,0-.2c0,0,.1,0,.2,0s.2,0,.2,0,0,.1,0,.2,0,.2,0,.2-.1,0-.2,0-.2,0-.2,0ZM24.3,69.3v2.9h-.5v-2.9h.5Z"/>
      <path class="st1" d="M27.3,69.6c.2.2.3.5.3.9v1.7h-.5v-1.6c0-.3,0-.5-.2-.7-.1-.2-.3-.2-.6-.2s-.4,0-.6.2c-.1.2-.2.4-.2.7v1.6h-.5v-2.9h.5v.4c0-.1.2-.3.4-.3.2,0,.3-.1.5-.1.3,0,.6.1.8.3Z"/>
      <path class="st1" d="M30.3,69.4c.2.1.3.2.4.4v-.5h.5v2.9c0,.3,0,.5-.2.7-.1.2-.3.4-.5.5-.2.1-.4.2-.7.2s-.7,0-.9-.3c-.3-.2-.4-.4-.4-.7h.5c0,.2.2.3.3.4.2.1.4.2.6.2s.5,0,.6-.2c.2-.2.2-.4.2-.7v-.6c0,.2-.2.3-.4.4-.2.1-.4.2-.6.2s-.5,0-.7-.2-.4-.3-.5-.5c-.1-.2-.2-.5-.2-.8s0-.5.2-.8.3-.4.5-.5c.2-.1.4-.2.7-.2s.5,0,.6.2ZM30.5,70.2c0-.2-.2-.3-.4-.4-.1,0-.3-.1-.5-.1s-.3,0-.5.1-.3.2-.3.4c0,.2-.1.3-.1.6s0,.4.1.6c0,.2.2.3.3.4s.3.1.5.1.3,0,.5-.1c.1,0,.3-.2.4-.4,0-.2.1-.4.1-.6s0-.4-.1-.6Z"/>
      <path class="st1" d="M33.4,69.4c.2-.3.4-.5.7-.7.3-.2.6-.2.9-.2s.7,0,1,.3.5.5.6.8h-.6c-.1-.2-.2-.4-.4-.5-.2-.1-.4-.2-.7-.2s-.5,0-.7.2c-.2.1-.4.3-.5.5-.1.2-.2.5-.2.8s0,.5.2.8c.1.2.3.4.5.5.2.1.4.2.7.2s.5,0,.7-.2.3-.3.4-.5h.6c-.1.3-.4.6-.6.8-.3.2-.6.3-1,.3s-.6,0-.9-.2c-.3-.2-.5-.4-.7-.7s-.2-.6-.2-1,0-.7.2-1Z"/>
      <path class="st1" d="M37.4,69.9c.1-.2.3-.4.5-.5.2-.1.4-.2.7-.2s.5,0,.7.2c.2.1.3.2.4.4v-.5h.5v2.9h-.5v-.5c0,.2-.2.3-.4.4-.2.1-.4.2-.6.2s-.5,0-.7-.2c-.2-.1-.4-.3-.5-.5-.1-.2-.2-.5-.2-.8s0-.5.2-.8ZM39.5,70.2c0-.2-.2-.3-.4-.4-.1,0-.3-.1-.5-.1s-.3,0-.5.1-.3.2-.3.4c0,.2-.1.3-.1.6s0,.4.1.6c0,.2.2.3.3.4s.3.1.5.1.3,0,.5-.1c.1,0,.3-.2.4-.4,0-.2.1-.4.1-.6s0-.4-.1-.6Z"/>
      <path class="st1" d="M41.7,69.4c.2,0,.3-.1.6-.1v.5h-.1c-.5,0-.8.3-.8.9v1.6h-.5v-2.9h.5v.5c0-.2.2-.3.4-.4Z"/>
      <path class="st1" d="M45.4,70.9h-2.3c0,.3.1.5.3.7.2.2.4.2.6.2s.4,0,.5-.1c.1,0,.2-.2.3-.4h.5c0,.3-.2.5-.5.7-.2.2-.5.3-.9.3s-.5,0-.7-.2c-.2-.1-.4-.3-.5-.5-.1-.2-.2-.5-.2-.8s0-.6.2-.8.3-.4.5-.5c.2-.1.5-.2.7-.2s.5,0,.7.2c.2.1.4.3.5.5.1.2.2.4.2.7s0,.2,0,.3ZM44.9,70c0-.1-.2-.2-.3-.3-.1,0-.3-.1-.5-.1-.2,0-.4,0-.6.2-.2.2-.3.4-.3.6h1.8c0-.2,0-.3-.1-.5Z"/>
      <path class="st1" d="M48.7,70.9h-2.3c0,.3.1.5.3.7.2.2.4.2.6.2s.4,0,.5-.1c.1,0,.2-.2.3-.4h.5c0,.3-.2.5-.5.7-.2.2-.5.3-.9.3s-.5,0-.7-.2c-.2-.1-.4-.3-.5-.5-.1-.2-.2-.5-.2-.8s0-.6.2-.8.3-.4.5-.5c.2-.1.5-.2.7-.2s.5,0,.7.2c.2.1.4.3.5.5.1.2.2.4.2.7s0,.2,0,.3ZM48.1,70c0-.1-.2-.2-.3-.3-.1,0-.3-.1-.5-.1-.2,0-.4,0-.6.2-.2.2-.3.4-.3.6h1.8c0-.2,0-.3-.1-.5Z"/>
      <path class="st1" d="M50.2,69.4c.2,0,.3-.1.6-.1v.5h-.1c-.5,0-.8.3-.8.9v1.6h-.5v-2.9h.5v.5c0-.2.2-.3.4-.4Z"/>
      <path class="st1" d="M54.8,70.4c.1,0,.2.2.3.3,0,.1,0,.3,0,.4s0,.4-.1.5c0,.1-.2.3-.4.3s-.4.1-.6.1h-1.4v-3.6h1.3c.2,0,.5,0,.6.1.2,0,.3.2.4.3,0,.1.1.3.1.5s0,.4-.2.5-.3.2-.5.3c.1,0,.3,0,.4.2ZM53.1,70.1h.8c.2,0,.4,0,.5-.2.1-.1.2-.2.2-.4s0-.3-.2-.4c-.1-.1-.3-.2-.5-.2h-.8v1.2ZM54.5,71.6c.1-.1.2-.3.2-.5s0-.4-.2-.5-.3-.2-.6-.2h-.8v1.3h.8c.2,0,.4,0,.6-.2Z"/>
      <path class="st1" d="M55.9,69.9c.1-.2.3-.4.5-.5.2-.1.4-.2.7-.2s.5,0,.7.2c.2.1.3.2.4.4v-.5h.5v2.9h-.5v-.5c0,.2-.2.3-.4.4-.2.1-.4.2-.6.2s-.5,0-.7-.2c-.2-.1-.4-.3-.5-.5-.1-.2-.2-.5-.2-.8s0-.5.2-.8ZM58,70.2c0-.2-.2-.3-.4-.4-.1,0-.3-.1-.5-.1s-.3,0-.5.1-.3.2-.3.4c0,.2-.1.3-.1.6s0,.4.1.6c0,.2.2.3.3.4s.3.1.5.1.3,0,.5-.1c.1,0,.3-.2.4-.4,0-.2.1-.4.1-.6s0-.4-.1-.6Z"/>
      <path class="st1" d="M60.2,69.4c.2,0,.3-.1.6-.1v.5h-.1c-.5,0-.8.3-.8.9v1.6h-.5v-2.9h.5v.5c0-.2.2-.3.4-.4Z"/>
      <path class="st1" d="M62.2,69.4c.2,0,.3-.1.6-.1v.5h-.1c-.5,0-.8.3-.8.9v1.6h-.5v-2.9h.5v.5c0-.2.2-.3.4-.4Z"/>
      <path class="st1" d="M63.3,68.7c0,0,0-.1,0-.2s0-.2,0-.2c0,0,.1,0,.2,0s.2,0,.2,0,0,.1,0,.2,0,.2,0,.2-.1,0-.2,0-.2,0-.2,0ZM63.8,69.3v2.9h-.5v-2.9h.5Z"/>
      <path class="st1" d="M67.2,70.9h-2.3c0,.3.1.5.3.7.2.2.4.2.6.2s.4,0,.5-.1c.1,0,.2-.2.3-.4h.5c0,.3-.2.5-.5.7-.2.2-.5.3-.9.3s-.5,0-.7-.2c-.2-.1-.4-.3-.5-.5-.1-.2-.2-.5-.2-.8s0-.6.2-.8.3-.4.5-.5c.2-.1.5-.2.7-.2s.5,0,.7.2c.2.1.4.3.5.5.1.2.2.4.2.7s0,.2,0,.3ZM66.6,70c0-.1-.2-.2-.3-.3-.1,0-.3-.1-.5-.1-.2,0-.4,0-.6.2-.2.2-.3.4-.3.6h1.8c0-.2,0-.3-.1-.5Z"/>
      <path class="st1" d="M68.6,69.4c.2,0,.3-.1.6-.1v.5h-.1c-.5,0-.8.3-.8.9v1.6h-.5v-2.9h.5v.5c0-.2.2-.3.4-.4Z"/>
      <path class="st1" d="M70.2,72.1c-.2,0-.3-.2-.4-.3-.1-.1-.2-.3-.2-.5h.5c0,.1,0,.3.2.3.1,0,.3.1.5.1s.3,0,.4-.1c.1,0,.2-.2.2-.3s0-.2-.2-.3c-.1,0-.3-.1-.5-.2-.2,0-.4-.1-.5-.2-.1,0-.2-.1-.3-.3s-.1-.3-.1-.4,0-.3.1-.4c0-.1.2-.2.4-.3s.3-.1.5-.1c.3,0,.6,0,.8.2.2.2.3.4.3.7h-.5c0-.1,0-.3-.2-.4-.1,0-.3-.1-.4-.1s-.3,0-.4.1c-.1,0-.2.2-.2.3s0,.2,0,.2.1.1.2.1c0,0,.2,0,.4.1.2,0,.4.1.5.2s.2.1.3.2.1.2.1.4c0,.2,0,.3-.1.4,0,.1-.2.2-.4.3s-.3.1-.5.1-.4,0-.6-.1Z"/>
    </g>
    <rect class="st1" x="8.8" y="61.6" width="63" height=".7"/>
  </g>
</svg>